<?xml version="1.0" encoding="UTF-8"?>
<svg xmlns="http://www.w3.org/2000/svg" xmlns:xlink="http://www.w3.org/1999/xlink" viewBox="0 0 26 26" version="1.1" width="50px" height="50px">
<g id="surface1">
<path fill="#AAA" style=" " d="M 18.9375 2.90625 C 18.730469 2.910156 18.523438 2.949219 18.3125 3 C 16.710938 3.300781 15.699219 4.804688 16 6.40625 C 16.800781 5.707031 17.90625 5 19.40625 5 C 20.605469 5 21.398438 5.292969 22 5.59375 C 22 5.492188 22.007813 5.414063 21.90625 5.3125 C 21.644531 3.914063 20.386719 2.871094 18.9375 2.90625 Z M 7 3.03125 C 5.617188 2.996094 4.355469 4 4.09375 5.3125 C 3.992188 5.414063 4 5.492188 4 5.59375 C 4.601563 5.292969 5.492188 5 6.59375 5 C 8.09375 5 9.207031 5.699219 9.90625 6.5 C 10.207031 4.898438 9.195313 3.394531 7.59375 3.09375 C 7.394531 3.042969 7.199219 3.035156 7 3.03125 Z M 6.59375 6 C 4.09375 6 3.492188 7.386719 3.09375 8.6875 C 2.394531 10.886719 0.5 16.09375 0.5 16.09375 C 0.5 16.09375 0.601563 15.996094 0.625 15.96875 C 0.230469 16.726563 0 17.589844 0 18.5 C 0 21.527344 2.472656 24 5.5 24 C 8.527344 24 11 21.527344 11 18.5 C 11 15.664063 8.828125 13.3125 6.0625 13.03125 C 9.296875 13.203125 10.339844 14.769531 11 16 C 11 17.101563 11.898438 18 13 18 C 14.101563 18 15 17.101563 15 16 C 15.660156 14.769531 16.703125 13.203125 19.9375 13.03125 C 17.171875 13.3125 15 15.664063 15 18.5 C 15 21.527344 17.472656 24 20.5 24 C 23.527344 24 26 21.527344 26 18.5 C 26 17.589844 25.769531 16.726563 25.375 15.96875 C 25.398438 15.996094 25.5 16.09375 25.5 16.09375 C 25.5 16.09375 23.605469 10.886719 22.90625 8.6875 C 22.507813 7.488281 21.90625 6 19.40625 6 C 16.707031 6 15.707031 9.289063 14.90625 8.6875 C 14.40625 8.1875 13.699219 8 13 8 C 12.300781 8 11.59375 8.1875 11.09375 8.6875 C 10.292969 9.289063 9.292969 6 6.59375 6 Z M 5.5 15 C 7.445313 15 9 16.554688 9 18.5 C 9 20.445313 7.445313 22 5.5 22 C 3.554688 22 2 20.445313 2 18.5 C 2 16.554688 3.554688 15 5.5 15 Z M 20.5 15 C 22.445313 15 24 16.554688 24 18.5 C 24 20.445313 22.445313 22 20.5 22 C 18.554688 22 17 20.445313 17 18.5 C 17 16.554688 18.554688 15 20.5 15 Z "/>
</g>
</svg>
